<?xml version="1.0" standalone="no"?>
<!DOCTYPE svg PUBLIC "-//W3C//DTD SVG 20010904//EN"
 "http://www.w3.org/TR/2001/REC-SVG-20010904/DTD/svg10.dtd">
<svg version="1.0" xmlns="http://www.w3.org/2000/svg"
 width="700.000000pt" height="700.000000pt" viewBox="0 0 700.000000 700.000000"
 preserveAspectRatio="xMidYMid meet">
<metadata>
Created by potrace 1.14, written by Peter Selinger 2001-2017
</metadata>
<g transform="translate(0.000000,700.000000) scale(0.100000,-0.100000)"
fill="#000000" stroke="none">
<path d="M3367 6450 c-32 -12 -77 -32 -100 -46 -49 -30 -2988 -2963 -3019
-3012 -12 -20 -22 -57 -25 -93 -7 -81 28 -154 94 -198 26 -17 54 -32 62 -32 9
-1 31 -2 50 -4 83 -6 107 9 277 177 88 87 162 158 165 158 2 0 4 -532 5 -1183
0 -650 3 -1202 7 -1227 33 -213 184 -408 384 -496 135 -60 2 -56 2193 -58
1768 -1 2085 2 2150 17 59 14 83 23 145 53 179 86 307 248 356 449 9 37 13
356 14 1245 2 657 3 1197 4 1200 0 3 70 -63 154 -147 83 -83 168 -159 187
-169 23 -12 57 -18 97 -18 85 0 146 37 186 114 25 48 28 63 24 115 -3 33 -11
72 -19 87 -7 15 -250 265 -540 555 -412 412 -528 533 -528 553 0 14 -2 351 -3
750 -2 784 0 748 -56 812 -13 15 -45 38 -70 50 -44 21 -59 22 -296 23 -172 1
-263 -2 -293 -11 -58 -17 -107 -56 -135 -107 -21 -40 -22 -54 -24 -312 -1
-148 -2 -288 -3 -310 l0 -39 -527 524 c-548 545 -566 561 -673 588 -68 17
-181 13 -243 -8z m1230 -1512 l1092 -1093 -3 -1400 c-2 -770 -5 -1407 -8
-1415 -18 -60 -69 -115 -133 -141 -44 -18 -4017 -20 -4079 -2 -54 16 -109 66
-134 121 -19 42 -19 86 -20 1440 l0 1397 1091 1093 c601 600 1094 1092 1097
1092 3 0 496 -492 1097 -1092z"/>
</g>
</svg>
